<svg id="svg" version="1.1" width="3072" height="3072" xmlns="http://www.w3.org/2000/svg"><path d="M729.893 110.119 C 705.761 141.260,695.900 190.388,703.553 241.338 C 718.733 342.389,807.583 486.122,943.754 629.910 C 977.884 665.950,971.213 661.704,918.000 613.521 C 875.600 575.129,857.551 556.698,771.088 463.500 C 737.411 427.200,702.341 389.400,693.155 379.500 C 675.164 360.111,630.969 311.484,621.996 301.204 C 618.973 297.742,608.929 286.267,599.676 275.704 C 590.423 265.142,566.685 237.600,546.925 214.500 C 474.618 129.972,475.248 130.330,477.754 175.166 C 481.601 244.006,511.907 310.340,575.220 388.500 C 617.236 440.368,714.991 531.380,796.936 594.921 C 818.625 611.739,835.931 625.969,835.393 626.543 C 834.045 627.980,792.572 599.937,763.500 577.931 C 723.802 547.883,530.486 391.793,490.500 357.503 C 471.223 340.972,377.583 266.706,367.554 259.994 C 344.977 244.886,340.438 251.089,349.407 284.791 C 362.718 334.810,390.725 378.745,442.317 430.543 C 497.578 486.025,535.416 514.541,641.971 581.010 C 674.162 601.091,714.185 626.066,730.911 636.510 C 747.637 646.955,760.872 655.989,760.323 656.587 C 759.094 657.927,681.290 617.318,640.500 594.046 C 596.083 568.705,426.481 479.713,380.075 457.397 C 357.892 446.730,319.662 431.267,295.121 423.035 C 251.910 408.541,237.000 405.319,237.000 410.472 C 237.000 416.092,259.632 444.178,284.056 468.869 C 331.034 516.360,371.276 543.397,467.440 592.075 C 526.807 622.127,603.122 656.827,656.336 677.963 C 706.464 697.874,675.888 689.666,573.092 655.616 C 419.909 604.875,314.104 579.892,239.250 576.789 C 215.586 575.808,201.000 576.307,201.000 578.098 C 201.000 582.550,232.519 604.885,259.375 619.463 C 325.863 655.555,385.302 675.833,519.000 708.036 C 543.927 714.040,535.919 715.665,504.000 711.080 C 449.592 703.265,379.143 698.138,322.019 697.836 C 287.105 697.651,257.550 698.480,256.342 699.678 C 251.943 704.038,261.970 710.782,293.178 724.449 C 327.338 739.409,376.425 752.318,432.000 760.954 L 466.500 766.316 417.000 771.500 C 349.894 778.527,342.778 780.593,351.106 790.627 C 356.697 797.364,401.448 818.841,414.116 820.867 C 424.700 822.559,425.540 823.477,427.310 835.277 C 429.811 851.953,445.792 868.591,464.568 874.066 C 478.013 877.987,478.399 878.427,477.501 888.854 C 476.991 894.764,477.974 902.214,479.684 905.409 C 483.328 912.218,501.224 921.380,515.607 923.800 C 524.915 925.366,525.770 926.431,526.427 937.282 C 527.569 956.150,541.551 966.155,577.031 973.491 C 585.246 975.190,585.382 975.501,580.697 981.878 C 578.021 985.520,573.731 993.115,571.164 998.755 C 565.263 1011.723,569.283 1022.118,582.066 1026.943 C 586.980 1028.798,591.000 1031.105,591.000 1032.069 C 591.000 1033.034,586.275 1038.403,580.500 1044.000 C 562.734 1061.220,567.075 1075.267,592.136 1081.648 L 604.500 1084.797 588.750 1093.375 C 580.088 1098.093,573.000 1102.934,573.000 1104.132 C 573.000 1108.187,587.743 1116.000,595.394 1116.000 C 599.578 1116.000,603.000 1116.829,603.000 1117.842 C 603.000 1118.856,597.360 1124.690,590.466 1130.808 L 577.931 1141.931 584.389 1148.389 C 587.941 1151.941,594.594 1155.669,599.174 1156.674 C 616.952 1160.575,617.059 1160.946,603.704 1172.464 C 596.666 1178.534,590.928 1184.581,590.954 1185.903 C 591.022 1189.442,610.573 1197.000,619.659 1197.000 C 627.494 1197.000,627.486 1197.027,615.255 1210.922 C 608.515 1218.580,603.000 1226.645,603.000 1228.845 C 603.000 1234.208,618.609 1242.000,629.351 1242.000 C 643.214 1242.000,643.012 1245.267,628.218 1260.286 C 620.558 1268.063,615.184 1275.870,616.274 1277.635 C 618.815 1281.745,646.459 1290.000,657.684 1290.000 C 666.065 1290.000,665.845 1290.407,648.890 1306.287 C 634.060 1320.176,631.989 1323.377,634.824 1328.031 C 638.761 1334.497,656.716 1340.430,673.500 1340.812 L 685.500 1341.085 668.250 1356.291 C 658.763 1364.654,651.000 1373.300,651.000 1375.504 C 651.000 1377.708,655.745 1382.443,661.544 1386.027 C 669.850 1391.160,676.537 1392.502,693.044 1392.348 C 704.570 1392.240,714.000 1393.028,714.000 1394.099 C 714.000 1395.170,704.550 1405.792,693.000 1417.703 C 681.450 1429.615,672.000 1440.694,672.000 1442.324 C 672.000 1451.157,725.391 1454.931,752.150 1447.990 L 767.607 1443.981 748.103 1466.740 C 728.201 1489.965,706.518 1520.518,708.518 1522.518 C 710.652 1524.652,770.706 1509.168,788.775 1501.826 C 798.799 1497.753,807.000 1494.914,807.000 1495.517 C 807.000 1496.120,798.925 1507.838,789.055 1521.557 C 773.695 1542.906,738.000 1608.262,738.000 1615.035 C 738.000 1618.407,758.135 1614.088,779.565 1606.121 C 791.678 1601.617,798.030 1600.393,796.984 1602.766 C 787.645 1623.963,779.604 1645.230,778.115 1652.675 C 776.345 1661.527,776.536 1661.711,784.897 1659.214 C 819.090 1649.001,868.552 1631.315,882.046 1624.477 C 900.305 1615.224,901.168 1612.829,872.638 1650.580 C 850.114 1680.385,820.731 1724.731,822.401 1726.401 C 823.138 1727.138,855.413 1716.919,894.121 1703.690 C 975.617 1675.839,1061.982 1648.982,1063.895 1650.895 C 1064.622 1651.622,1043.905 1663.039,1017.858 1676.268 C 963.477 1703.886,890.916 1733.631,807.237 1762.608 C 723.237 1791.696,704.707 1800.745,723.412 1803.541 C 728.729 1804.336,727.040 1806.412,713.533 1815.688 C 698.360 1826.107,677.754 1845.000,681.562 1845.000 C 682.488 1845.000,688.478 1843.181,694.873 1840.959 C 701.268 1838.736,711.900 1836.069,718.500 1835.033 L 730.500 1833.149 720.000 1841.083 C 714.225 1845.447,701.063 1857.495,690.750 1867.857 C 672.170 1886.527,666.869 1895.789,677.250 1891.445 C 684.432 1888.440,706.241 1884.264,707.620 1885.630 C 708.235 1886.240,703.054 1893.198,696.106 1901.092 C 682.157 1916.939,660.000 1959.886,660.000 1971.078 C 660.000 1977.955,660.414 1977.822,671.250 1967.464 C 692.074 1947.558,698.592 1947.692,680.527 1967.654 C 665.225 1984.563,642.696 2020.696,645.627 2023.627 C 646.289 2024.289,653.791 2020.144,662.297 2014.416 C 670.804 2008.687,678.597 2004.000,679.615 2004.000 C 680.634 2004.000,676.863 2009.379,671.236 2015.953 C 659.683 2029.450,643.575 2057.575,646.005 2060.005 C 646.886 2060.886,652.210 2058.095,657.836 2053.803 C 671.780 2043.168,673.410 2043.990,664.668 2057.250 C 656.987 2068.901,640.767 2109.000,643.735 2109.000 C 647.200 2109.000,673.753 2089.361,711.373 2058.972 C 749.539 2028.144,750.000 2027.879,738.136 2043.552 C 731.497 2052.323,724.674 2063.491,722.973 2068.368 L 719.881 2077.236 728.191 2069.718 C 746.545 2053.112,747.476 2052.896,742.730 2066.349 C 737.381 2081.510,735.543 2102.511,739.480 2103.485 C 741.119 2103.891,755.917 2088.085,772.365 2068.361 C 788.812 2048.638,816.788 2017.650,834.532 1999.500 L 866.794 1966.500 853.118 1992.971 C 845.596 2007.530,840.063 2020.063,840.822 2020.822 C 841.581 2021.581,846.595 2017.094,851.966 2010.851 C 863.806 1997.086,933.662 1931.662,935.043 1933.043 C 935.584 1933.584,934.087 1937.958,931.717 1942.763 C 929.346 1947.568,926.518 1955.116,925.432 1959.536 L 923.457 1967.573 952.978 1955.897 C 969.215 1949.475,1003.425 1939.355,1029.000 1933.409 C 1054.575 1927.462,1087.650 1919.775,1102.500 1916.327 C 1117.350 1912.878,1136.809 1907.565,1145.742 1904.521 C 1154.675 1901.476,1162.601 1899.601,1163.354 1900.354 C 1164.107 1901.107,1160.688 1906.848,1155.755 1913.112 C 1143.099 1929.183,1108.562 1983.117,1099.592 2000.818 C 1095.074 2009.735,1093.248 2016.417,1095.030 2017.518 C 1096.663 2018.528,1098.000 2020.501,1098.000 2021.903 C 1098.000 2023.995,1031.389 2083.975,997.755 2112.169 C 992.945 2116.201,982.762 2124.900,975.127 2131.500 C 967.492 2138.100,951.932 2150.250,940.549 2158.500 C 914.352 2177.486,898.049 2194.169,896.191 2203.892 C 893.906 2215.842,898.756 2231.754,908.295 2243.607 C 914.544 2251.372,928.188 2260.100,955.807 2274.000 C 977.117 2284.725,1009.391 2303.511,1027.526 2315.747 C 1075.501 2348.116,1176.849 2419.396,1203.351 2439.407 L 1226.202 2456.663 1263.778 2525.081 C 1297.430 2586.355,1329.000 2646.856,1329.000 2650.071 C 1329.000 2650.725,1322.353 2654.120,1314.230 2657.615 C 1296.480 2665.251,1290.000 2672.933,1280.990 2697.026 C 1277.048 2707.568,1268.636 2721.430,1261.081 2729.832 C 1253.887 2737.834,1248.000 2745.065,1248.000 2745.901 C 1248.000 2746.736,1254.388 2744.995,1262.195 2742.032 C 1280.014 2735.268,1297.036 2721.129,1305.765 2705.841 C 1313.549 2692.210,1316.548 2691.439,1325.348 2700.806 L 1331.743 2707.613 1326.080 2730.056 C 1319.648 2755.549,1312.745 2809.402,1315.117 2815.584 C 1315.984 2817.843,1314.601 2823.886,1312.044 2829.012 C 1306.797 2839.530,1307.745 2848.923,1317.340 2881.500 C 1327.737 2916.804,1327.614 2916.688,1333.485 2896.759 C 1337.207 2884.126,1338.654 2869.009,1338.512 2844.259 C 1338.359 2817.522,1339.776 2804.307,1344.650 2787.000 C 1348.136 2774.625,1351.922 2763.411,1353.063 2762.081 C 1354.204 2760.750,1356.001 2766.150,1357.056 2774.081 C 1360.084 2796.851,1376.843 2865.630,1381.644 2874.993 C 1384.040 2879.664,1386.000 2887.126,1386.000 2891.576 C 1386.000 2900.686,1390.067 2907.320,1410.169 2931.000 C 1417.873 2940.075,1425.793 2950.200,1427.770 2953.500 C 1434.144 2964.139,1429.403 2924.527,1422.718 2911.283 C 1413.005 2892.042,1412.073 2883.073,1421.649 2901.000 C 1426.496 2910.075,1434.971 2921.790,1440.481 2927.033 C 1451.420 2937.441,1495.970 2959.094,1498.390 2955.179 C 1500.333 2952.034,1488.611 2936.055,1459.747 2902.500 C 1446.973 2887.650,1434.469 2870.775,1431.960 2865.000 C 1412.688 2820.636,1398.643 2762.265,1395.041 2711.567 C 1393.558 2690.704,1390.437 2669.104,1388.104 2663.567 C 1385.771 2658.030,1369.722 2630.550,1352.439 2602.500 C 1307.580 2529.693,1302.443 2520.513,1309.619 2525.984 C 1342.816 2551.295,1389.462 2592.189,1430.250 2631.740 C 1450.112 2650.999,1458.000 2660.701,1458.000 2665.870 C 1458.000 2669.841,1453.837 2680.466,1448.750 2689.481 L 1439.500 2705.871 1444.637 2731.757 C 1447.874 2748.070,1449.133 2763.849,1448.041 2774.427 L 1446.308 2791.212 1453.523 2782.356 C 1463.100 2770.601,1469.989 2750.111,1470.046 2733.216 C 1470.124 2710.032,1474.274 2708.745,1484.360 2728.778 C 1489.267 2738.525,1498.278 2758.650,1504.385 2773.500 C 1525.840 2825.676,1535.405 2844.040,1540.173 2842.210 C 1543.424 2840.963,1545.177 2843.390,1546.634 2851.159 C 1547.972 2858.290,1552.794 2865.655,1561.197 2873.400 C 1576.372 2887.389,1619.876 2917.124,1622.023 2914.977 C 1622.868 2914.132,1618.570 2903.948,1612.473 2892.344 C 1602.530 2873.422,1581.813 2849.850,1568.493 2842.300 C 1565.775 2840.760,1559.917 2831.400,1555.474 2821.500 C 1545.701 2799.722,1526.873 2750.127,1527.965 2749.035 C 1528.396 2748.604,1533.293 2755.957,1538.848 2765.376 C 1565.438 2810.460,1593.442 2850.000,1598.784 2850.000 C 1602.253 2850.000,1605.075 2852.892,1606.276 2857.677 C 1609.088 2868.881,1631.114 2891.450,1647.183 2899.593 C 1658.503 2905.329,1702.280 2922.000,1706.023 2922.000 C 1706.560 2922.000,1707.000 2920.654,1707.000 2919.009 C 1707.000 2913.540,1684.868 2891.410,1654.033 2866.048 C 1625.294 2842.409,1622.209 2838.733,1599.637 2801.244 C 1563.197 2740.722,1530.703 2679.039,1527.339 2664.000 C 1523.858 2648.442,1514.854 2639.239,1475.978 2611.500 C 1462.103 2601.600,1424.370 2572.681,1392.126 2547.236 C 1359.882 2521.791,1318.650 2489.763,1300.500 2476.062 C 1282.350 2462.362,1264.555 2448.756,1260.955 2445.826 C 1254.546 2440.610,1232.519 2404.264,1214.093 2368.500 C 1206.064 2352.916,1204.755 2347.077,1204.337 2325.000 C 1204.072 2310.975,1202.818 2290.583,1201.552 2279.684 C 1199.216 2259.591,1201.117 2249.167,1211.343 2226.000 C 1218.860 2208.970,1282.430 2103.278,1304.360 2071.348 C 1322.263 2045.282,1326.653 2040.838,1342.544 2032.698 C 1370.802 2018.223,1415.689 1971.630,1445.951 1925.362 L 1470.896 1887.225 1498.198 1881.191 C 1513.214 1877.872,1540.253 1872.346,1558.285 1868.910 C 1597.032 1861.526,1630.070 1849.307,1653.338 1833.754 C 1662.599 1827.565,1680.647 1815.420,1693.446 1806.767 C 1738.306 1776.439,1788.432 1767.276,1876.500 1773.305 C 1941.743 1777.772,1987.853 1775.427,2025.684 1765.718 C 2076.996 1752.550,2104.937 1738.571,2188.500 1684.259 C 2259.450 1638.146,2308.980 1624.124,2361.287 1635.342 C 2384.284 1640.274,2512.733 1706.958,2559.000 1737.985 C 2571.375 1746.283,2598.854 1770.044,2620.064 1790.787 C 2656.148 1826.075,2676.062 1847.600,2758.345 1940.250 C 2776.296 1960.463,2792.137 1977.000,2793.548 1977.000 C 2800.794 1977.000,2780.406 1932.358,2757.241 1897.500 C 2749.566 1885.950,2719.606 1842.750,2690.664 1801.500 C 2623.553 1705.849,2589.377 1654.730,2584.616 1642.878 C 2582.544 1637.720,2580.553 1624.833,2580.191 1614.240 C 2578.866 1575.413,2558.419 1541.357,2525.320 1522.847 C 2499.633 1508.482,2476.473 1503.000,2441.476 1503.000 C 2368.807 1503.000,2286.241 1532.032,2200.295 1587.805 C 2136.010 1629.521,2098.222 1642.928,2052.305 1640.310 C 2035.320 1639.342,2021.383 1636.681,2012.336 1632.679 C 1995.456 1625.212,1974.082 1606.007,1962.831 1588.198 C 1953.628 1573.631,1952.421 1572.968,1947.000 1579.500 C 1940.586 1587.229,1939.500 1584.659,1939.500 1561.745 C 1939.500 1538.106,1937.253 1532.079,1931.219 1539.530 C 1926.624 1545.204,1913.645 1554.000,1909.868 1554.000 C 1908.329 1554.000,1909.464 1551.355,1912.390 1548.122 C 1918.376 1541.507,1921.781 1519.504,1918.711 1507.272 L 1916.682 1499.187 1907.414 1508.666 C 1902.316 1513.880,1897.774 1517.774,1897.320 1517.320 C 1896.867 1516.867,1897.698 1510.055,1899.169 1502.184 C 1901.261 1490.987,1900.783 1485.651,1896.972 1477.660 L 1892.101 1467.446 1885.695 1476.952 C 1875.607 1491.922,1870.552 1490.766,1870.213 1473.409 C 1870.020 1463.534,1867.574 1454.900,1862.762 1447.115 L 1855.598 1435.523 1853.813 1446.503 C 1851.994 1457.693,1843.745 1473.000,1839.533 1473.000 C 1838.253 1473.000,1837.745 1468.371,1838.406 1462.714 C 1840.327 1446.255,1834.020 1432.559,1818.764 1420.057 C 1808.924 1411.994,1805.574 1410.385,1807.344 1414.573 C 1813.143 1428.294,1812.674 1437.145,1805.599 1447.535 C 1797.161 1459.925,1794.000 1460.707,1794.000 1450.404 C 1794.000 1440.045,1787.066 1424.269,1776.931 1411.566 C 1767.015 1399.138,1764.318 1398.310,1766.223 1408.275 C 1766.988 1412.277,1765.954 1420.580,1763.925 1426.726 L 1760.237 1437.902 1755.970 1427.701 C 1753.623 1422.090,1746.089 1411.763,1739.227 1404.750 C 1726.232 1391.470,1719.875 1388.240,1724.462 1397.250 C 1730.280 1408.674,1733.565 1429.765,1731.121 1440.000 C 1729.742 1445.775,1728.469 1447.800,1728.292 1444.500 C 1727.792 1435.200,1715.585 1417.047,1704.164 1408.621 C 1691.177 1399.039,1690.858 1399.090,1696.423 1409.851 C 1701.254 1419.194,1702.882 1456.483,1698.575 1459.145 C 1697.241 1459.969,1694.635 1454.981,1692.784 1448.061 C 1688.796 1433.151,1675.072 1413.308,1662.611 1404.435 L 1653.688 1398.082 1659.344 1409.175 C 1665.964 1422.159,1666.317 1432.033,1660.608 1444.500 C 1657.266 1451.799,1656.441 1452.336,1656.244 1447.339 C 1655.799 1436.102,1641.365 1411.603,1627.148 1397.957 C 1619.438 1390.556,1614.337 1387.200,1615.814 1390.500 C 1619.294 1398.274,1618.609 1433.591,1614.907 1437.293 C 1613.109 1439.091,1607.162 1434.308,1598.779 1424.321 C 1591.476 1415.619,1576.602 1399.050,1565.727 1387.500 C 1493.573 1310.869,1439.058 1234.489,1400.853 1156.500 C 1376.966 1107.736,1364.919 1073.354,1352.639 1018.895 C 1347.792 997.398,1340.828 973.793,1337.163 966.438 C 1330.644 953.356,1301.813 922.771,1286.425 912.613 C 1218.736 867.932,1201.745 849.979,1173.422 793.211 C 1131.241 708.665,1099.709 581.047,1087.511 445.500 C 1086.620 435.600,1085.060 422.775,1084.043 417.000 C 1083.027 411.225,1081.364 358.686,1080.348 300.246 C 1078.956 220.228,1077.590 193.689,1074.813 192.767 C 1069.185 190.897,1040.774 219.398,1029.249 238.475 C 1015.168 261.786,1000.620 301.764,993.198 337.547 C 987.905 363.069,987.169 375.266,988.226 420.000 C 988.933 449.920,991.550 483.728,994.310 498.606 C 1002.461 542.548,1021.649 596.917,1045.664 644.120 C 1065.394 682.899,1066.975 687.150,1058.764 679.360 C 1039.565 661.141,988.595 588.750,938.060 507.927 C 865.078 391.202,791.205 238.064,753.926 126.220 C 749.292 112.316,743.973 100.445,742.106 99.839 C 740.239 99.233,734.743 103.859,729.893 110.119 M2300.833 106.619 C 2272.036 127.850,2246.220 172.403,2224.769 237.887 C 2207.525 290.529,2201.100 350.873,2197.395 494.997 C 2196.355 535.421,2195.137 568.863,2194.687 569.313 C 2194.238 569.762,2192.123 557.613,2189.988 542.315 C 2187.517 524.605,2186.143 482.895,2186.207 427.500 C 2186.311 337.324,2187.401 306.796,2194.666 190.500 C 2200.187 102.108,2200.187 102.000,2194.033 102.000 C 2173.052 102.000,2130.144 164.812,2111.034 223.500 C 2092.591 280.142,2086.373 329.802,2086.804 417.000 C 2087.124 481.586,2092.501 535.272,2103.306 581.739 C 2106.533 595.621,2108.664 608.446,2108.042 610.239 C 2106.516 614.633,2092.945 569.825,2083.543 529.352 C 2079.346 511.284,2074.661 491.775,2073.132 486.000 C 2064.538 453.541,2048.368 336.762,2036.855 224.008 C 2032.424 180.605,2029.960 178.398,2010.078 200.020 C 1991.309 220.433,1976.128 250.471,1966.372 286.500 C 1950.727 344.284,1953.175 438.721,1972.264 513.805 C 1979.687 542.997,1996.866 591.372,2008.693 616.384 C 2012.564 624.571,2015.290 631.710,2014.749 632.251 C 2013.681 633.319,1983.614 587.530,1967.963 561.000 C 1962.610 551.925,1941.035 512.671,1920.019 473.769 C 1871.006 383.045,1848.578 345.033,1842.735 342.791 C 1839.916 341.710,1835.884 343.694,1832.562 347.796 C 1825.068 357.050,1815.097 390.452,1813.752 410.800 C 1809.179 480.032,1848.726 577.873,1908.720 645.750 C 1918.564 656.888,1925.382 666.000,1923.872 666.000 C 1921.310 666.000,1886.165 635.521,1826.686 581.717 C 1801.795 559.200,1762.524 530.341,1743.899 520.878 C 1730.540 514.091,1722.819 514.692,1720.272 522.719 C 1716.237 535.433,1718.685 565.933,1725.121 583.136 C 1732.992 604.171,1760.594 641.793,1782.065 660.750 C 1790.942 668.588,1797.388 675.000,1796.390 675.000 C 1795.392 675.000,1775.208 665.526,1751.538 653.947 C 1727.867 642.369,1701.380 630.637,1692.678 627.877 C 1671.085 621.029,1666.709 625.112,1667.434 651.428 C 1667.981 671.282,1674.836 688.455,1687.627 702.016 L 1694.716 709.532 1670.941 708.452 C 1647.848 707.403,1646.906 707.633,1638.083 716.455 C 1625.554 728.985,1625.419 745.363,1637.738 758.254 L 1646.476 767.397 1632.528 769.489 C 1624.856 770.639,1615.186 773.355,1611.040 775.523 C 1588.419 787.349,1577.019 814.752,1589.879 826.390 C 1595.640 831.605,1602.833 832.484,1655.425 834.404 C 1687.916 835.589,1738.800 839.384,1768.500 842.835 C 1827.264 849.664,1918.599 867.232,1942.500 876.304 C 1961.833 883.642,1962.000 883.614,1962.000 873.043 C 1962.000 861.933,1949.345 852.844,1916.005 840.006 C 1865.256 820.464,1831.805 810.673,1782.000 800.782 L 1753.500 795.123 1792.995 796.745 C 1879.086 800.280,1951.177 819.113,1999.291 850.639 C 2005.935 854.992,2006.144 854.875,2004.750 847.583 C 2003.431 840.682,2004.209 840.003,2013.400 840.036 C 2039.176 840.126,2080.107 857.986,2092.861 874.706 C 2096.787 879.854,2100.000 884.926,2100.000 885.976 C 2100.000 887.027,2091.463 883.194,2081.028 877.458 C 2070.304 871.564,2055.631 866.243,2047.278 865.219 L 2032.500 863.408 2043.000 869.233 C 2052.034 874.244,2074.958 905.042,2071.917 908.083 C 2071.370 908.630,2063.399 905.750,2054.203 901.684 C 2029.894 890.933,2004.303 884.992,1982.567 885.054 L 1963.500 885.109 1980.000 894.167 C 1996.768 903.372,2015.469 919.531,2012.634 922.366 C 2011.777 923.223,2003.746 921.357,1994.788 918.218 C 1972.338 910.354,1935.146 905.444,1906.500 906.563 L 1882.500 907.500 1905.000 913.112 C 1917.375 916.199,1936.950 923.464,1948.500 929.257 C 1969.452 939.767,1996.282 956.804,1994.461 958.443 C 1993.932 958.919,1982.335 957.510,1968.689 955.311 C 1955.043 953.113,1916.568 951.035,1883.189 950.695 C 1849.810 950.354,1800.225 948.207,1773.000 945.924 C 1744.005 943.492,1695.864 942.130,1656.787 942.636 C 1620.095 943.111,1593.770 942.502,1598.287 941.282 C 1614.319 936.952,1697.017 924.285,1731.000 920.954 C 1749.975 919.095,1785.349 918.007,1809.609 918.537 C 1833.870 919.066,1852.770 918.610,1851.609 917.522 C 1848.196 914.322,1792.604 903.813,1750.500 898.409 C 1725.863 895.247,1688.298 893.313,1648.500 893.157 C 1595.128 892.948,1580.088 893.935,1550.087 899.620 C 1503.117 908.519,1483.801 916.245,1466.267 933.145 C 1458.420 940.709,1452.000 948.338,1452.000 950.099 C 1452.000 955.157,1461.724 956.477,1495.261 955.971 C 1512.446 955.712,1526.060 955.946,1525.514 956.490 C 1524.967 957.035,1513.145 959.966,1499.242 963.004 C 1452.285 973.265,1421.594 985.618,1400.775 1002.637 C 1393.643 1008.467,1385.712 1021.712,1387.989 1023.989 C 1389.095 1025.095,1400.913 1026.049,1414.250 1026.108 L 1438.500 1026.216 1422.000 1032.072 C 1392.884 1042.406,1383.000 1047.706,1383.000 1052.986 C 1383.000 1075.984,1426.534 1161.920,1473.931 1232.482 C 1505.193 1279.023,1525.016 1303.991,1554.912 1334.479 C 1574.036 1353.982,1577.432 1356.264,1585.063 1354.737 C 1636.442 1344.462,1720.275 1346.466,1770.000 1359.159 C 1796.631 1365.957,1836.397 1382.715,1845.546 1390.995 C 1851.785 1396.640,1850.888 1398.439,1859.998 1362.000 C 1876.376 1296.496,1922.870 1210.701,1988.188 1125.455 C 2023.254 1079.691,2054.578 1047.313,2109.441 1000.120 C 2165.857 951.593,2183.618 931.419,2202.039 894.947 C 2222.834 853.772,2228.295 819.565,2218.265 793.303 L 2213.530 780.905 2228.595 757.828 C 2256.051 715.769,2267.012 677.191,2279.874 577.349 C 2283.264 551.032,2286.661 524.775,2287.424 519.000 C 2288.979 507.223,2296.836 416.343,2299.484 379.500 C 2300.433 366.300,2301.859 349.425,2302.654 342.000 C 2304.027 329.169,2308.329 279.260,2311.704 237.000 C 2312.561 226.275,2313.796 211.636,2314.449 204.470 C 2315.102 197.303,2316.588 170.641,2317.750 145.220 C 2320.117 93.478,2319.760 92.663,2300.833 106.619 M2194.039 627.308 C 2203.508 645.715,2205.000 651.409,2205.000 669.131 C 2205.000 680.414,2203.928 690.309,2202.617 691.119 C 2198.399 693.726,2186.833 659.287,2182.846 632.250 C 2180.717 617.813,2179.899 606.000,2181.027 606.000 C 2182.155 606.000,2188.010 615.589,2194.039 627.308 M2160.813 677.038 C 2163.411 686.642,2166.485 699.225,2167.643 705.000 C 2169.733 715.416,2169.701 715.456,2163.605 709.993 C 2149.881 697.694,2140.922 680.323,2135.825 656.127 L 2130.638 631.500 2143.364 645.538 C 2152.342 655.441,2157.481 664.719,2160.813 677.038 M2110.145 680.274 C 2119.571 691.127,2134.679 725.337,2131.452 728.521 C 2127.589 732.334,2093.881 692.621,2082.769 671.164 C 2076.598 659.249,2071.017 648.275,2070.367 646.778 C 2068.404 642.256,2100.869 669.595,2110.145 680.274 M2054.367 697.260 C 2074.963 712.433,2095.515 740.534,2098.792 757.999 C 2099.852 763.653,2100.170 768.830,2099.498 769.502 C 2096.879 772.121,2059.802 736.088,2036.739 708.510 C 2004.023 669.389,2002.745 666.740,2021.068 676.037 C 2029.006 680.064,2043.990 689.614,2054.367 697.260 M1948.867 703.663 C 2004.663 721.756,2045.478 748.882,2062.363 779.092 C 2066.612 786.693,2069.587 793.413,2068.975 794.025 C 2067.955 795.045,1931.178 704.633,1924.650 698.624 C 1920.426 694.735,1922.957 695.262,1948.867 703.663 M1783.655 723.032 C 1853.807 730.322,1927.069 750.519,1980.579 777.319 C 2011.866 792.989,2028.697 805.845,2035.730 819.445 C 2039.412 826.566,2039.462 828.000,2036.025 828.000 C 2029.047 828.000,2012.743 821.815,1983.574 808.101 C 1907.563 772.366,1812.127 736.752,1763.250 725.882 C 1753.763 723.772,1746.000 720.830,1746.000 719.346 C 1746.000 717.861,1747.082 717.315,1748.405 718.132 C 1749.728 718.950,1765.591 721.155,1783.655 723.032 M1591.500 841.880 C 1573.373 844.713,1550.004 852.554,1539.017 859.489 C 1526.205 867.577,1514.280 881.408,1516.718 885.353 C 1517.618 886.809,1530.762 887.963,1545.927 887.919 C 1573.315 887.838,1583.355 887.025,1675.500 877.430 C 1725.240 872.250,1818.974 870.499,1841.250 874.333 C 1848.347 875.554,1854.000 875.343,1854.000 873.856 C 1854.000 870.680,1770.273 853.646,1723.500 847.306 C 1689.728 842.728,1607.659 839.355,1591.500 841.880 M1857.000 972.850 C 1866.075 975.124,1879.529 979.643,1886.897 982.893 L 1900.294 988.803 1844.897 987.576 C 1796.373 986.500,1683.085 990.720,1657.500 994.555 C 1641.744 996.917,1692.315 980.536,1723.500 973.177 C 1749.805 966.969,1758.858 966.258,1797.000 967.407 C 1820.925 968.127,1847.925 970.577,1857.000 972.850 M1821.000 1027.943 C 1866.585 1035.227,1866.225 1037.082,1819.500 1035.666 C 1769.158 1034.141,1710.508 1038.060,1650.000 1046.993 C 1627.725 1050.282,1607.475 1052.855,1605.000 1052.713 C 1592.210 1051.974,1674.887 1030.502,1707.206 1026.168 C 1735.420 1022.385,1791.710 1023.263,1821.000 1027.943 M2453.027 1540.951 C 2458.577 1543.585,2465.897 1549.642,2469.293 1554.411 C 2476.226 1564.148,2482.278 1598.345,2477.984 1603.519 C 2470.991 1611.945,2484.972 1634.862,2506.567 1650.370 C 2515.542 1656.815,2522.728 1665.478,2527.944 1676.139 C 2532.266 1684.972,2535.104 1692.896,2534.251 1693.749 C 2531.489 1696.511,2495.264 1683.099,2464.500 1667.924 C 2416.016 1644.009,2392.826 1622.702,2381.706 1591.853 C 2376.621 1577.747,2363.607 1566.497,2343.222 1558.586 C 2327.056 1552.313,2323.631 1548.021,2334.750 1547.968 C 2338.463 1547.950,2348.250 1545.832,2356.500 1543.262 C 2390.462 1532.680,2433.430 1531.652,2453.027 1540.951 M1268.954 2010.750 C 1268.929 2012.813,1267.703 2016.404,1266.229 2018.732 C 1264.599 2021.308,1264.802 2024.966,1266.749 2028.084 C 1269.291 2032.155,1266.674 2039.276,1253.986 2062.812 C 1216.003 2133.270,1170.844 2206.212,1138.096 2250.000 C 1122.614 2270.701,1119.346 2280.705,1122.518 2297.684 C 1125.454 2313.402,1135.314 2331.013,1154.067 2354.037 C 1169.824 2373.383,1170.055 2373.484,1126.500 2342.003 C 1059.083 2293.277,1014.215 2258.405,1002.281 2245.458 C 991.069 2233.294,990.000 2230.725,990.000 2215.942 C 990.000 2178.124,992.353 2175.245,1094.311 2088.286 C 1126.223 2061.068,1135.445 2054.678,1140.793 2056.077 C 1145.225 2057.236,1164.596 2050.690,1198.482 2036.583 C 1226.542 2024.902,1252.875 2013.522,1257.000 2011.293 C 1266.485 2006.167,1269.012 2006.053,1268.954 2010.750 " stroke="none" fill="black" fill-rule="evenodd"/></svg>